<svg version="1.1" id="Layer_1" xmlns="http://www.w3.org/2000/svg" xmlns:xlink="http://www.w3.org/1999/xlink" x="0px" y="0px"
	 width="100%" viewBox="0 0 1280 400" enable-background="new 0 0 1280 400" xml:space="preserve">
<path fill="#010101" opacity="1.000000" stroke="none" 
	d="
M1190.000000,401.000000 
	C793.716492,401.000000 397.432922,401.000000 1.074697,401.000000 
	C1.074697,267.733246 1.074697,134.466446 1.074697,1.099826 
	C427.546478,1.099826 854.093018,1.099826 1280.819824,1.099826 
	C1280.819824,134.333145 1280.819824,267.666534 1280.819824,401.000000 
	C1258.246948,401.000000 1235.583252,401.000000 1212.058838,400.754333 
	C1211.347778,400.076202 1211.375854,399.383362 1211.664185,399.249023 
	C1221.326538,394.746979 1223.813110,386.531281 1223.683838,376.736755 
	C1223.528198,364.938507 1223.725586,353.135620 1223.572754,341.337311 
	C1223.545166,339.214874 1225.193970,335.455536 1221.202148,335.491302 
	C1217.469971,335.524780 1212.572998,332.717255 1210.257202,338.418182 
	C1200.946045,332.689301 1189.523315,333.855774 1182.858765,341.168182 
	C1175.670898,349.054749 1175.130493,364.201965 1182.423828,373.055481 
	C1184.888794,376.047760 1188.842651,378.249573 1192.552490,379.682129 
	C1198.712036,382.060608 1204.747925,380.555786 1210.201050,376.607819 
	C1210.894775,383.135559 1209.100830,387.637970 1205.275879,389.436951 
	C1200.951538,391.470856 1196.578735,390.052856 1191.955078,385.203918 
	C1191.451660,384.676025 1190.656250,384.132812 1189.980469,384.112152 
	C1186.430420,384.003906 1182.875366,384.061523 1179.105713,384.061523 
	C1179.807495,390.762848 1182.812134,394.818024 1187.540161,397.884308 
	C1188.591431,398.566071 1189.192017,399.943054 1190.000000,401.000000 
M59.487675,255.769257 
	C59.935760,255.140625 60.383850,254.511993 61.363567,253.495758 
	C63.207256,251.612213 65.050941,249.728653 67.561783,247.790253 
	C68.637070,246.478455 69.712357,245.166656 70.857552,243.847992 
	C70.857552,243.847992 70.850624,243.778076 71.496254,243.743408 
	C72.200073,243.080734 72.903893,242.418060 74.148834,241.358612 
	C76.682381,238.755127 79.215927,236.151627 82.392799,233.513565 
	C83.795273,231.928497 85.197739,230.343430 87.081680,228.384369 
	C87.761124,227.633835 88.440567,226.883301 89.769333,226.069229 
	C90.561203,225.090195 91.353073,224.111160 92.675980,222.751678 
	C95.044014,220.367813 97.412048,217.983963 100.429955,215.539261 
	C101.547020,213.979156 102.664093,212.419037 104.196938,210.331314 
	C105.738235,207.216660 107.279526,204.102020 109.410606,200.489792 
	C109.484795,195.339310 109.558983,190.188843 109.567169,184.224258 
	C109.653671,183.145599 109.740181,182.066940 110.385208,180.397141 
	C110.423523,177.852234 110.461838,175.307343 110.612663,171.912186 
	C111.061607,168.607330 111.510544,165.302490 112.343605,161.413574 
	C112.675034,159.850723 113.006454,158.287857 113.500885,156.154434 
	C113.552452,155.762207 113.604019,155.369995 114.253494,154.558472 
	C114.659050,152.954590 115.064606,151.350723 115.834221,149.135010 
	C116.672157,147.192337 117.510086,145.249680 118.942451,143.097351 
	C119.212425,142.349594 119.482399,141.601852 120.079857,140.315231 
	C120.662827,139.206436 121.245789,138.097656 122.412964,136.695877 
	C122.922935,135.781677 123.432899,134.867493 124.000244,133.995270 
	C124.000244,133.995270 123.949402,133.944229 124.571808,133.782043 
	C125.015114,132.831223 125.458427,131.880402 126.357819,130.543930 
	C126.971771,129.763474 127.585732,128.983002 128.805817,128.064835 
	C129.190186,127.366005 129.574554,126.667175 130.498718,125.584351 
	C133.005875,123.064568 135.513031,120.544785 138.649246,117.968147 
	C139.365219,117.263306 140.081177,116.558464 141.233795,115.613724 
	C141.518723,115.432587 141.754608,115.201408 142.575897,114.933525 
	C143.109756,114.344505 143.643616,113.755486 144.736404,112.863632 
	C145.766098,112.143944 146.795776,111.424263 148.473770,110.734642 
	C149.309952,110.150528 150.146149,109.566422 151.000000,109.000000 
	C151.000000,109.000000 150.984100,108.981194 151.703781,109.005417 
	C153.930939,107.837906 156.158096,106.670403 159.008606,105.277870 
	C159.581406,104.952065 160.154205,104.626266 161.469681,104.406136 
	C164.643860,103.243492 167.818024,102.080856 171.756943,100.874443 
	C172.768906,100.772720 173.780853,100.670998 175.393066,100.816841 
	C175.925690,100.513023 176.458328,100.209206 177.753799,99.851578 
	C178.763336,99.741684 179.772858,99.631783 181.375183,99.713249 
	C181.913834,99.444466 182.452499,99.175690 183.826904,98.892380 
	C185.218521,98.918610 186.610138,98.944839 188.326508,99.297562 
	C188.882111,99.175209 189.437729,99.052864 190.877274,98.939392 
	C198.018723,100.214714 205.160172,101.490044 212.138885,103.610939 
	C212.770309,107.462036 210.833817,110.112595 208.277771,112.703003 
	C206.033325,114.977654 204.208755,117.666611 201.835617,120.499207 
	C201.610535,120.734871 201.396820,120.980431 200.498230,121.127373 
	C192.941833,128.976410 185.724136,137.192032 177.735382,144.573120 
	C169.469513,152.210251 166.230637,160.960037 169.085739,171.800522 
	C171.096558,179.435455 174.670151,186.085266 182.555817,190.342438 
	C183.957672,191.344650 185.359543,192.346863 186.976349,194.006607 
	C188.732391,194.566574 190.488449,195.126556 192.882339,195.973404 
	C194.255310,196.224899 195.628296,196.476395 197.382645,197.327515 
	C198.042099,197.329453 198.701538,197.331406 200.190857,197.493561 
	C202.460709,197.678406 204.730545,197.863235 207.299194,198.470901 
	C207.864517,198.231155 208.429855,197.991409 209.674423,197.588654 
	C212.441772,196.382172 215.209106,195.175690 218.632050,193.970139 
	C219.461853,193.016159 220.291672,192.062195 221.673004,190.751266 
	C223.754364,188.792664 225.835724,186.834045 228.554443,184.911560 
	C229.226044,184.193298 229.897659,183.475037 231.015091,182.337448 
	C231.725586,181.611298 232.436081,180.885147 233.793549,180.093704 
	C234.578735,179.107910 235.363907,178.122116 236.688187,176.753006 
	C241.783752,171.824463 246.879333,166.895920 252.622253,161.954880 
	C253.515656,161.078140 254.409042,160.201385 255.650436,159.166183 
	C255.650436,159.166183 255.956406,158.936874 256.596558,159.009323 
	C257.334564,158.293579 258.072571,157.577835 259.285522,156.602158 
	C259.437164,156.504364 259.588837,156.406586 260.640808,156.480667 
	C261.857178,156.426392 263.073547,156.372131 264.653778,156.648880 
	C264.653778,156.648880 264.991058,157.006912 264.952820,157.822739 
	C265.713318,166.759079 266.998657,175.688660 267.113708,184.633301 
	C267.295380,198.754944 262.379578,211.443130 254.433350,223.016403 
	C251.929718,226.662842 249.514664,230.370102 247.002151,234.002365 
	C247.002151,234.002365 247.049103,234.059509 246.362030,234.073837 
	C242.623749,237.422836 238.885452,240.771835 235.048843,244.054901 
	C235.048843,244.054901 235.114609,244.153320 234.484055,244.070511 
	C233.521088,244.864426 232.558121,245.658340 231.044998,246.724350 
	C230.414139,247.230423 229.783279,247.736511 228.451080,248.200226 
	C226.511017,249.315201 224.570953,250.430176 222.112717,251.731613 
	C221.776276,251.878098 221.439819,252.024567 220.344971,252.077744 
	C216.910400,253.520020 213.475830,254.962296 209.439545,256.463470 
	C209.043396,256.533020 208.647232,256.602570 207.724411,256.355194 
	C207.012955,256.696686 206.301514,257.038177 204.886047,257.555603 
	C203.926956,257.663361 202.967850,257.771118 201.531631,257.510315 
	C199.028259,258.081696 196.524902,258.653076 193.313477,259.196533 
	C192.628510,259.352997 191.943527,259.509491 190.337418,259.427795 
	C188.128677,259.554138 185.919922,259.680481 183.011536,259.497284 
	C182.002304,259.411560 180.993057,259.325806 179.621689,258.807190 
	C178.754623,258.945129 177.887573,259.083038 176.214554,259.162445 
	C175.137466,259.191193 174.060379,259.219940 172.638992,258.802338 
	C171.754074,258.817230 170.869156,258.832092 169.329178,258.757019 
	C168.889862,258.781738 168.450531,258.806488 167.598633,258.456299 
	C166.738129,258.700531 165.877609,258.944733 164.408157,259.212128 
	C164.013580,259.301605 163.619019,259.391083 162.511917,259.256683 
	C160.244522,260.400482 157.977127,261.544250 155.355789,262.840607 
	C155.355789,262.840607 155.056503,263.083496 154.348068,263.016449 
	C152.853546,264.041809 151.156219,264.863892 149.894485,266.122559 
	C125.410431,290.548370 100.968796,315.016724 76.565689,339.523376 
	C75.625801,340.467285 75.157150,341.880432 74.468910,343.074921 
	C75.907646,343.556396 77.345703,344.456543 78.785217,344.458862 
	C129.743973,344.541595 180.703003,344.602203 231.661545,344.478882 
	C238.738052,344.461761 245.892288,343.975098 252.872482,342.849609 
	C273.728302,339.486847 288.722168,327.558258 299.249542,309.669464 
	C308.040161,294.731903 308.300964,278.150513 308.265717,261.494720 
	C308.175659,218.948776 308.312042,176.402222 308.153534,133.856659 
	C308.100403,119.596176 309.653656,105.154770 305.153412,91.223122 
	C302.907135,84.269165 300.738037,77.175407 294.998596,72.011162 
	C294.998596,72.011162 294.927765,72.057739 294.980804,71.349823 
	C292.104706,67.941132 289.545715,64.189140 286.294830,61.186176 
	C275.190826,50.928997 261.806915,44.673443 246.854050,44.494576 
	C200.388138,43.938744 153.911102,44.148380 107.439507,44.337830 
	C94.032585,44.392483 80.381584,43.951977 67.273758,46.225250 
	C35.319492,51.767044 14.856975,77.058479 14.471298,108.789536 
	C13.786530,165.128067 14.228522,221.481827 14.482511,277.827942 
	C14.508937,283.690399 16.445057,289.544250 17.495113,295.402100 
	C18.132219,295.600220 18.769325,295.798309 19.406433,295.996399 
	C28.843704,286.267456 38.280975,276.538513 48.226578,266.486572 
	C48.747471,265.875610 49.268364,265.264618 50.437389,264.660461 
	C51.533760,263.377289 52.630127,262.094086 54.248627,260.537811 
	C54.803246,259.984558 55.357868,259.431305 56.573441,258.870880 
	C57.315411,257.867035 58.057377,256.863190 58.867588,255.864197 
	C58.867588,255.864197 58.861217,255.796082 59.487675,255.769257 
M1134.483887,168.345337 
	C1125.079712,177.255722 1120.318726,188.831909 1117.397827,200.927322 
	C1113.045898,218.949600 1114.179810,236.896774 1122.331055,253.851974 
	C1130.060791,269.930237 1142.075928,282.063690 1158.383545,289.370636 
	C1176.226929,297.365784 1194.708130,297.855865 1213.642090,293.172028 
	C1228.904663,289.396332 1240.817261,280.852417 1251.025391,269.377350 
	C1260.494873,258.732574 1265.190430,246.101395 1267.821289,232.220535 
	C1270.363770,218.805771 1268.530151,205.807236 1264.506714,193.385300 
	C1259.925415,179.241013 1251.271606,167.316772 1239.114502,158.176010 
	C1230.439575,151.653381 1220.830566,146.451431 1210.410034,144.747375 
	C1200.121216,143.064865 1189.260620,143.424622 1178.813721,144.487976 
	C1161.245239,146.276184 1146.534302,154.315613 1135.138062,168.139862 
	C1135.138062,168.139862 1135.142456,168.227036 1134.483887,168.345337 
M731.581848,294.361847 
	C751.569214,297.500793 770.639343,295.244446 788.053223,284.264832 
	C809.018616,271.046051 820.261414,251.573975 822.457092,227.247009 
	C824.041260,209.695908 820.319580,192.978424 810.687378,177.813141 
	C800.830383,162.294128 787.006775,152.027435 769.487976,147.103592 
	C762.541931,145.151337 755.127197,144.462738 747.878723,144.072189 
	C731.060364,143.166000 715.393738,147.083893 701.619385,157.120697 
	C682.496887,171.054489 672.286682,189.967697 670.656738,213.535156 
	C669.148804,235.337692 674.399719,254.999283 689.416199,271.414581 
	C700.597839,283.637909 714.321838,291.416138 731.581848,294.361847 
M610.907349,289.083679 
	C625.785950,282.803406 636.755066,271.985626 644.987915,258.480988 
	C651.713013,247.449677 654.387024,234.916031 654.879028,222.151306 
	C655.142090,215.328369 654.242920,208.324661 652.876465,201.604218 
	C650.306335,188.963913 644.167419,177.944534 635.607056,168.317123 
	C626.460266,158.030289 615.054138,150.892670 602.046326,147.025009 
	C589.221619,143.211823 575.885864,143.008453 562.634216,145.367157 
	C539.355774,149.510605 522.356873,162.400284 510.983795,182.892578 
	C503.044952,197.196930 501.131226,212.805130 502.449738,228.766190 
	C503.444336,240.806061 507.222107,252.289108 514.047302,262.302460 
	C526.292114,280.266937 542.998596,291.584167 564.924622,294.559204 
	C580.477112,296.669495 595.634766,295.801178 610.907349,289.083679 
M420.760406,281.428986 
	C420.727295,284.094666 420.350159,286.821564 420.808899,289.399719 
	C421.031860,290.652618 422.795349,292.556702 423.900482,292.583954 
	C434.724274,292.851166 445.556274,292.781494 456.385956,292.814789 
	C459.382843,292.824005 460.336029,291.455017 460.156860,288.418152 
	C459.843872,283.114258 459.978638,277.781952 459.984131,272.461578 
	C460.024445,233.259384 460.080566,194.057175 460.128235,154.854980 
	C460.136841,147.789307 460.129425,140.723602 460.129425,133.475677 
	C477.512238,133.475677 493.822968,133.334015 510.128296,133.567612 
	C514.637878,133.632217 515.869995,132.040146 515.711548,127.765869 
	C515.436218,120.337616 515.611572,112.889793 515.706726,105.451576 
	C515.780579,99.687981 515.176941,99.057510 509.135651,99.065628 
	C465.832703,99.123817 422.529755,99.169884 379.226807,99.218750 
	C375.597443,99.222847 371.968079,99.219292 367.967712,99.219292 
	C367.967712,110.761879 367.967712,121.809624 367.967712,133.146576 
	C369.922485,133.238373 371.557556,133.379517 373.192810,133.381836 
	C386.689789,133.400925 400.186737,133.396423 413.683716,133.394547 
	C420.754669,133.393555 420.761627,133.389450 420.761169,140.490906 
	C420.758148,187.143387 420.751831,233.795853 420.760406,281.428986 
M1055.740723,203.016602 
	C1050.466431,218.719986 1045.192261,234.423370 1039.654419,250.911423 
	C1038.513428,249.303253 1037.726562,248.598434 1037.438721,247.728500 
	C1032.504883,232.818665 1027.624878,217.890945 1022.748779,202.962036 
	C1017.071289,185.579269 1011.348816,168.210739 1005.790283,150.789963 
	C1004.661682,147.252792 1002.812744,145.706497 998.994812,145.799576 
	C991.172791,145.990265 983.339600,145.683929 975.514709,145.810074 
	C971.644409,145.872467 967.782288,146.440567 963.326111,146.831650 
	C964.365601,149.770691 965.074036,151.946854 965.898560,154.078094 
	C973.253357,173.088394 980.695312,192.065247 987.981628,211.101700 
	C997.948303,237.140869 1007.742310,263.246490 1017.844543,289.232544 
	C1018.472351,290.847626 1021.110168,292.652039 1022.860352,292.701965 
	C1033.840820,293.015198 1044.838013,292.981323 1055.821289,292.716492 
	C1057.467896,292.676819 1059.961182,291.190369 1060.556396,289.750427 
	C1066.813477,274.615417 1072.930786,259.417297 1078.764038,244.113541 
	C1090.470215,213.401627 1101.973389,182.612350 1113.564697,151.856628 
	C1115.375000,147.053482 1114.792114,145.872650 1109.841919,145.799591 
	C1099.352783,145.644791 1088.853149,145.533890 1078.375244,145.899124 
	C1076.552856,145.962631 1073.798462,148.101730 1073.195312,149.869339 
	C1067.259888,167.264557 1061.688232,184.783981 1055.740723,203.016602 
M879.161926,272.481995 
	C879.207947,212.059418 879.212036,151.636719 879.393921,91.214546 
	C879.406067,87.180664 878.143250,85.970116 874.322021,86.040138 
	C864.336304,86.223137 854.341614,86.331619 844.359131,86.098412 
	C839.876343,85.993690 838.617188,87.791374 838.625610,91.983040 
	C838.697083,127.734818 838.600525,163.486877 838.615784,199.238831 
	C838.628357,228.825638 838.786438,258.412567 838.706543,287.998993 
	C838.696350,291.765747 839.894165,292.896667 843.568054,292.828949 
	C854.054810,292.635651 864.548340,292.687042 875.037354,292.805695 
	C878.241150,292.841980 879.536560,291.792572 879.353577,288.448395 
	C879.081055,283.468140 879.207886,278.465973 879.161926,272.481995 
M909.072937,228.500000 
	C909.072937,249.637665 909.072937,270.775330 909.072937,292.374695 
	C922.128662,292.374695 934.810913,292.374695 947.634888,292.374695 
	C947.771362,290.581177 947.958496,289.264954 947.958984,287.948669 
	C947.975525,242.122116 947.929871,196.295425 948.056213,150.469208 
	C948.066956,146.568604 946.665039,145.684525 943.102173,145.761368 
	C933.777161,145.962463 924.436646,146.082001 915.119507,145.750168 
	C910.245605,145.576584 908.925842,147.236237 908.967407,152.010651 
	C909.186218,177.172165 909.073120,202.336594 909.072937,228.500000 
M1059.936157,379.940430 
	C1068.086914,379.986023 1076.237671,380.018066 1084.388306,380.080536 
	C1095.541992,380.166016 1103.238770,372.990234 1101.649170,362.598541 
	C1100.957275,358.075378 1097.251099,354.013245 1094.872681,349.666290 
	C1099.465454,347.377594 1100.852417,342.274963 1100.413574,336.487244 
	C1099.935913,330.191010 1096.020508,325.873627 1090.197388,325.171387 
	C1079.409912,323.870514 1068.479980,323.751099 1057.256836,323.119812 
	C1057.256836,341.835175 1057.226807,359.290771 1057.332642,376.745544 
	C1057.338867,377.775055 1058.439331,378.797943 1059.936157,379.940430 
M907.093872,98.434311 
	C906.950073,102.816940 905.810730,107.454094 906.853455,111.533394 
	C909.717224,122.735756 920.869568,129.063644 933.396973,127.490776 
	C947.475037,125.723213 956.414612,110.026604 950.945618,97.172691 
	C946.639099,87.050980 939.017456,82.466293 928.342529,82.665100 
	C917.978027,82.858124 910.938110,87.998848 907.093872,98.434311 
M1129.190186,366.228882 
	C1132.634155,375.279480 1139.295288,379.966919 1148.865845,380.483368 
	C1158.509766,381.003754 1166.948486,378.150269 1171.378296,369.114990 
	C1175.512451,360.682526 1175.539673,351.703186 1169.752197,343.722412 
	C1163.251953,334.758942 1149.615479,332.011292 1139.613281,337.223755 
	C1129.654541,342.413635 1125.509155,353.486481 1129.190186,366.228882 
M1231.064453,350.192322 
	C1231.517212,355.610077 1234.995850,358.350891 1239.749146,359.880432 
	C1244.159302,361.299561 1248.657715,362.467010 1252.994629,364.075439 
	C1254.071777,364.474884 1255.391235,366.210907 1255.305664,367.223206 
	C1255.210693,368.347900 1253.656006,370.214172 1252.702026,370.236023 
	C1250.043335,370.297058 1245.899048,370.495880 1244.952148,368.994171 
	C1240.940186,362.631134 1235.412354,365.673798 1228.967285,364.997925 
	C1230.711670,368.794434 1231.497803,371.941040 1233.337646,374.247162 
	C1239.446899,381.904907 1256.063232,382.918610 1263.423950,376.387054 
	C1271.033691,369.634552 1269.366211,359.444183 1259.912476,355.731781 
	C1256.833740,354.522797 1253.440918,354.123444 1250.336548,352.965668 
	C1248.258667,352.190735 1246.139038,351.013824 1244.644165,349.440796 
	C1244.036499,348.801361 1245.072632,345.351501 1245.298218,345.358002 
	C1248.104126,345.438629 1252.446289,344.956818 1253.397949,346.485046 
	C1255.978760,350.629456 1259.348999,350.576660 1263.164429,350.431274 
	C1267.661133,350.259888 1268.349854,348.755829 1266.496704,344.404114 
	C1262.894409,335.944763 1252.865112,333.629333 1244.089233,335.071320 
	C1235.650269,336.457916 1231.613159,340.820007 1231.064453,350.192322 
M1121.817749,374.299438 
	C1121.817749,356.686920 1121.817749,339.074402 1121.817749,321.054932 
	C1117.250732,321.054932 1113.049683,321.054932 1108.814697,321.054932 
	C1108.814697,340.809418 1108.814697,360.183044 1108.814697,379.570496 
	C1113.320312,379.570496 1117.380127,379.570496 1121.622314,379.570496 
	C1121.702759,377.856415 1121.763916,376.551788 1121.817749,374.299438 
z"/>
<path fill="#E8E8E8" opacity="1.000000" stroke="none" 
	d="
M1190.468506,401.000000 
	C1189.192017,399.943054 1188.591431,398.566071 1187.540161,397.884308 
	C1182.812134,394.818024 1179.807495,390.762848 1179.105713,384.061523 
	C1182.875366,384.061523 1186.430420,384.003906 1189.980469,384.112152 
	C1190.656250,384.132812 1191.451660,384.676025 1191.955078,385.203918 
	C1196.578735,390.052856 1200.951538,391.470856 1205.275879,389.436951 
	C1209.100830,387.637970 1210.894775,383.135559 1210.201050,376.607819 
	C1204.747925,380.555786 1198.712036,382.060608 1192.552490,379.682129 
	C1188.842651,378.249573 1184.888794,376.047760 1182.423828,373.055481 
	C1175.130493,364.201965 1175.670898,349.054749 1182.858765,341.168182 
	C1189.523315,333.855774 1200.946045,332.689301 1210.257202,338.418182 
	C1212.572998,332.717255 1217.469971,335.524780 1221.202148,335.491302 
	C1225.193970,335.455536 1223.545166,339.214874 1223.572754,341.337311 
	C1223.725586,353.135620 1223.528198,364.938507 1223.683838,376.736755 
	C1223.813110,386.531281 1221.326538,394.746979 1211.664185,399.249023 
	C1211.375854,399.383362 1211.347778,400.076202 1211.599121,400.754333 
	C1204.979004,401.000000 1197.958130,401.000000 1190.468506,401.000000 
M1210.548584,354.321259 
	C1207.771118,345.792755 1199.134644,342.573059 1193.885986,348.109192 
	C1190.218262,351.977783 1189.769653,360.004578 1192.855835,365.188995 
	C1195.196655,369.121552 1198.538086,370.554291 1202.955933,369.449493 
	C1207.985962,368.191620 1210.811890,363.606354 1210.908813,356.583435 
	C1210.915527,356.091553 1210.787720,355.597870 1210.548584,354.321259 
z"/>
<path fill="#FCFCFC" opacity="1.000000" stroke="none" 
	d="
M174.792816,100.569275 
	C173.780853,100.670998 172.768906,100.772720 171.145630,100.671906 
	C167.265198,101.746399 163.996109,103.023438 160.727005,104.300461 
	C160.154205,104.626266 159.581406,104.952065 158.333832,105.254654 
	C155.434067,106.481361 153.209076,107.731277 150.984100,108.981194 
	C150.984100,108.981194 151.000000,109.000000 150.655334,108.896957 
	C149.482254,109.430801 148.653870,110.067688 147.825470,110.704582 
	C146.795776,111.424263 145.766098,112.143944 144.126129,112.983673 
	C142.991058,113.709213 142.466263,114.314705 141.941452,114.920197 
	C141.754608,115.201408 141.518723,115.432587 140.679276,115.687698 
	C139.423233,116.516121 138.721710,117.270561 138.020203,118.025002 
	C135.513031,120.544785 133.005875,123.064568 129.886475,125.789680 
	C128.916061,126.730850 128.557861,127.466690 128.199677,128.202530 
	C127.585732,128.983002 126.971771,129.763474 125.794098,130.784210 
	C124.803391,131.997742 124.376396,132.970993 123.949402,133.944229 
	C123.949402,133.944229 124.000244,133.995270 123.666283,133.957520 
	C122.831131,134.942795 122.329948,135.965836 121.828751,136.988861 
	C121.245789,138.097656 120.662827,139.206436 119.594421,140.655563 
	C118.855339,141.766266 118.601677,142.536636 118.348015,143.307007 
	C117.510086,145.249680 116.672157,147.192337 115.356117,149.539993 
	C114.470543,151.622574 114.063072,153.300171 113.655594,154.977768 
	C113.604019,155.369995 113.552452,155.762207 113.145676,156.575897 
	C112.513481,158.664124 112.236496,160.330872 111.959496,161.997635 
	C111.510544,165.302490 111.061607,168.607330 110.235634,172.500320 
	C109.847961,175.721725 109.837318,178.355011 109.826683,180.988281 
	C109.740181,182.066940 109.653671,183.145599 109.358704,184.953781 
	C109.040428,190.784653 108.930626,195.886017 108.820816,200.987366 
	C107.279526,204.102020 105.738235,207.216660 103.659874,210.624710 
	C102.008568,212.478760 100.894318,214.039429 99.780075,215.600098 
	C97.412048,217.983963 95.044014,220.367813 92.063416,222.898727 
	C90.673904,224.074768 89.896965,225.103775 89.120018,226.132767 
	C88.440567,226.883301 87.761124,227.633835 86.502129,228.544678 
	C84.531540,230.319366 83.140503,231.933746 81.749474,233.548126 
	C79.215927,236.151627 76.682381,238.755127 73.549500,241.511993 
	C72.250313,242.369614 71.550468,243.073837 70.850624,243.778076 
	C70.850624,243.778076 70.857552,243.847992 70.492973,243.867630 
	C69.050476,245.206543 67.972557,246.525818 66.894630,247.845093 
	C65.050941,249.728653 63.207256,251.612213 60.778473,253.677765 
	C59.749325,254.505188 59.305271,255.150635 58.861214,255.796082 
	C58.861217,255.796082 58.867588,255.864197 58.501274,255.856201 
	C57.394138,256.858154 56.653316,257.868103 55.912491,258.878052 
	C55.357868,259.431305 54.803246,259.984558 53.643471,260.619507 
	C51.955296,262.018707 50.872276,263.336182 49.789257,264.653656 
	C49.268364,265.264618 48.747471,265.875610 47.625641,266.613159 
	C38.044876,275.245300 29.065041,283.750916 20.085207,292.256500 
	C19.552328,292.193695 19.019449,292.130890 18.486572,292.068085 
	C17.672085,286.289368 16.171463,280.513153 16.150475,274.731537 
	C15.964270,223.442108 15.980087,172.151596 16.108105,120.861824 
	C16.125811,113.768242 16.837791,106.649193 17.644295,99.589455 
	C21.237745,68.134140 48.585224,46.907452 77.520721,46.408764 
	C133.789871,45.439003 190.090546,45.807785 246.371399,46.339794 
	C261.118530,46.479198 274.508667,52.371933 285.425964,62.843868 
	C288.609833,65.897835 291.761383,68.985519 294.927765,72.057739 
	C294.927765,72.057739 294.998596,72.011162 294.925385,72.404755 
	C301.979980,84.318718 306.343658,96.643730 306.332306,110.385132 
	C306.286224,166.184814 306.370300,221.984680 306.244812,277.784119 
	C306.234161,282.529175 305.325104,287.334747 304.325378,292.003418 
	C301.207977,306.561401 293.231598,318.323669 282.030853,327.747040 
	C270.928467,337.087738 257.466309,342.642944 243.297150,342.824249 
	C189.671585,343.510437 136.031982,343.103546 82.397644,343.089874 
	C80.674805,343.089417 78.952011,342.917755 75.943932,342.757355 
	C77.943146,340.640747 79.008537,339.457642 80.131645,338.332092 
	C94.708778,323.723480 109.307526,309.136383 123.872795,294.515991 
	C134.289169,284.060211 144.663437,273.562500 155.056488,263.083496 
	C155.056503,263.083496 155.355789,262.840607 155.893799,262.855957 
	C158.696030,261.741058 160.960236,260.610809 163.224442,259.480560 
	C163.619019,259.391083 164.013580,259.301605 164.912186,259.413208 
	C166.281219,259.353302 167.146225,259.092255 168.011215,258.831207 
	C168.450531,258.806488 168.889862,258.781738 169.835205,259.042603 
	C171.221909,259.301697 172.102600,259.275177 172.983292,259.248657 
	C174.060379,259.219940 175.137466,259.191193 176.773727,259.446533 
	C178.216537,259.567139 179.100189,259.403595 179.983826,259.240051 
	C180.993057,259.325806 182.002304,259.411560 183.578720,259.910461 
	C186.516785,260.104431 188.887680,259.885193 191.258560,259.665955 
	C191.943527,259.509491 192.628510,259.352997 193.914551,259.474640 
	C197.013351,259.128143 199.511047,258.503510 202.008759,257.878906 
	C202.967850,257.771118 203.926956,257.663361 205.507935,257.629578 
	C206.836929,257.359741 207.544006,257.015930 208.251083,256.672119 
	C208.647232,256.602570 209.043396,256.533020 209.994415,256.653717 
	C214.067322,255.286331 217.585358,253.728699 221.103378,252.171051 
	C221.439819,252.024567 221.776276,251.878098 222.721741,251.755188 
	C225.271317,250.600037 227.211868,249.421310 229.152420,248.242584 
	C229.783279,247.736511 230.414139,247.230423 231.652832,246.725708 
	C233.211975,245.869156 234.163300,245.011246 235.114609,244.153320 
	C235.114609,244.153320 235.048843,244.054901 235.452133,244.147675 
	C239.586639,240.846802 243.317871,237.453156 247.049103,234.059509 
	C247.049103,234.059509 247.002151,234.002365 247.376633,234.044800 
	C248.278091,233.692261 248.893509,233.375076 249.319260,232.891052 
	C265.591431,214.392090 271.352173,192.527222 269.352997,168.431046 
	C269.029297,164.529221 266.500549,160.810349 264.991058,157.006912 
	C264.991058,157.006912 264.653778,156.648880 264.335693,156.223724 
	C262.591919,155.968643 261.166199,156.138718 259.740509,156.308792 
	C259.588837,156.406586 259.437164,156.504364 258.713745,156.689087 
	C257.413452,157.496292 256.684937,158.216583 255.956406,158.936874 
	C255.956406,158.936874 255.650436,159.166183 255.136292,159.172485 
	C253.739731,160.108322 252.857315,161.037842 251.974915,161.967377 
	C246.879333,166.895920 241.783752,171.824463 236.071869,176.917603 
	C234.685883,178.107788 233.916229,179.133392 233.146576,180.159012 
	C232.436081,180.885147 231.725586,181.611298 230.471741,182.523056 
	C229.257965,183.430923 228.587524,184.153168 227.917084,184.875427 
	C225.835724,186.834045 223.754364,188.792664 221.059967,190.914276 
	C219.623428,192.041260 218.799942,193.005234 217.976440,193.969208 
	C215.209106,195.175690 212.441772,196.382172 209.181488,197.470215 
	C208.125824,197.583878 207.563110,197.815979 207.000397,198.048080 
	C204.730545,197.863235 202.460709,197.678406 199.685364,197.174622 
	C198.453674,196.813095 197.727478,196.770493 197.001266,196.727905 
	C195.628296,196.476395 194.255310,196.224899 192.481812,195.488510 
	C190.307983,194.452103 188.534698,193.900589 186.761398,193.349075 
	C185.359543,192.346863 183.957672,191.344650 182.286316,189.802505 
	C180.565369,187.661148 179.146378,186.028839 177.656937,184.463562 
	C170.439896,176.879044 167.886826,160.695419 173.583496,152.328064 
	C177.467422,146.623306 182.905258,141.986801 187.560226,136.793701 
	C192.162537,131.659363 196.654236,126.425865 201.194473,121.235870 
	C201.396820,120.980431 201.610535,120.734871 202.364197,120.372002 
	C206.037888,117.106941 209.481155,114.205353 212.221527,110.746811 
	C213.999619,108.502731 216.009399,105.441864 212.301620,102.765366 
	C205.160172,101.490044 198.018723,100.214714 190.282532,98.753555 
	C189.125778,98.702164 188.563766,98.836617 188.001755,98.971069 
	C186.610138,98.944839 185.218521,98.918610 183.251328,98.710556 
	C182.044632,98.859787 181.413513,99.190834 180.782394,99.521881 
	C179.772858,99.631783 178.763336,99.741684 177.222595,99.681053 
	C176.058548,99.863449 175.425674,100.216362 174.792816,100.569275 
z"/>
<path fill="#F7F7F7" opacity="1.000000" stroke="none" 
	d="
M731.153809,294.319794 
	C714.321838,291.416138 700.597839,283.637909 689.416199,271.414581 
	C674.399719,254.999283 669.148804,235.337692 670.656738,213.535156 
	C672.286682,189.967697 682.496887,171.054489 701.619385,157.120697 
	C715.393738,147.083893 731.060364,143.166000 747.878723,144.072189 
	C755.127197,144.462738 762.541931,145.151337 769.487976,147.103592 
	C787.006775,152.027435 800.830383,162.294128 810.687378,177.813141 
	C820.319580,192.978424 824.041260,209.695908 822.457092,227.247009 
	C820.261414,251.573975 809.018616,271.046051 788.053223,284.264832 
	C770.639343,295.244446 751.569214,297.500793 731.153809,294.319794 
M783.989563,218.656662 
	C782.367554,211.622772 781.565735,204.269226 778.971863,197.614105 
	C770.743835,176.502411 746.491455,171.949417 729.607727,180.204987 
	C716.390747,186.667679 710.190613,198.522537 708.883423,213.047165 
	C707.542297,227.948105 709.429260,241.773315 720.589172,253.083878 
	C726.505737,259.080383 733.538208,262.041443 741.768127,262.871216 
	C752.472595,263.950470 762.205627,261.922913 770.331482,254.461304 
	C780.549316,245.078842 784.116699,233.044785 783.989563,218.656662 
z"/>
<path fill="#F7F7F7" opacity="1.000000" stroke="none" 
	d="
M610.540894,289.213318 
	C595.634766,295.801178 580.477112,296.669495 564.924622,294.559204 
	C542.998596,291.584167 526.292114,280.266937 514.047302,262.302460 
	C507.222107,252.289108 503.444336,240.806061 502.449738,228.766190 
	C501.131226,212.805130 503.044952,197.196930 510.983795,182.892578 
	C522.356873,162.400284 539.355774,149.510605 562.634216,145.367157 
	C575.885864,143.008453 589.221619,143.211823 602.046326,147.025009 
	C615.054138,150.892670 626.460266,158.030289 635.607056,168.317123 
	C644.167419,177.944534 650.306335,188.963913 652.876465,201.604218 
	C654.242920,208.324661 655.142090,215.328369 654.879028,222.151306 
	C654.387024,234.916031 651.713013,247.449677 644.987915,258.480988 
	C636.755066,271.985626 625.785950,282.803406 610.540894,289.213318 
M541.504578,230.111160 
	C545.365601,248.329819 554.912903,261.009186 574.663025,263.008118 
	C587.592896,264.316742 599.339539,260.889465 607.361267,250.195053 
	C617.952454,236.075256 619.227722,220.130432 614.294617,203.440186 
	C609.989929,188.876068 597.346252,177.016968 580.194885,176.490204 
	C561.301208,175.909927 548.622070,186.963898 543.354065,203.241653 
	C540.541809,211.931229 542.165771,220.556412 541.504578,230.111160 
z"/>
<path fill="#F8F8F8" opacity="1.000000" stroke="none" 
	d="
M420.753510,280.938660 
	C420.751831,233.795853 420.758148,187.143387 420.761169,140.490906 
	C420.761627,133.389450 420.754669,133.393555 413.683716,133.394547 
	C400.186737,133.396423 386.689789,133.400925 373.192810,133.381836 
	C371.557556,133.379517 369.922485,133.238373 367.967712,133.146576 
	C367.967712,121.809624 367.967712,110.761879 367.967712,99.219292 
	C371.968079,99.219292 375.597443,99.222847 379.226807,99.218750 
	C422.529755,99.169884 465.832703,99.123817 509.135651,99.065628 
	C515.176941,99.057510 515.780579,99.687981 515.706726,105.451576 
	C515.611572,112.889793 515.436218,120.337616 515.711548,127.765869 
	C515.869995,132.040146 514.637878,133.632217 510.128296,133.567612 
	C493.822968,133.334015 477.512238,133.475677 460.129425,133.475677 
	C460.129425,140.723602 460.136841,147.789307 460.128235,154.854980 
	C460.080566,194.057175 460.024445,233.259384 459.984131,272.461578 
	C459.978638,277.781952 459.843872,283.114258 460.156860,288.418152 
	C460.336029,291.455017 459.382843,292.824005 456.385956,292.814789 
	C445.556274,292.781494 434.724274,292.851166 423.900482,292.583954 
	C422.795349,292.556702 421.031860,290.652618 420.808899,289.399719 
	C420.350159,286.821564 420.727295,284.094666 420.753510,280.938660 
z"/>
<path fill="#F5F5F5" opacity="1.000000" stroke="none" 
	d="
M1055.876953,202.642380 
	C1061.688232,184.783981 1067.259888,167.264557 1073.195312,149.869339 
	C1073.798462,148.101730 1076.552856,145.962631 1078.375244,145.899124 
	C1088.853149,145.533890 1099.352783,145.644791 1109.841919,145.799591 
	C1114.792114,145.872650 1115.375000,147.053482 1113.564697,151.856628 
	C1101.973389,182.612350 1090.470215,213.401627 1078.764038,244.113541 
	C1072.930786,259.417297 1066.813477,274.615417 1060.556396,289.750427 
	C1059.961182,291.190369 1057.467896,292.676819 1055.821289,292.716492 
	C1044.838013,292.981323 1033.840820,293.015198 1022.860352,292.701965 
	C1021.110168,292.652039 1018.472351,290.847626 1017.844543,289.232544 
	C1007.742310,263.246490 997.948303,237.140869 987.981628,211.101700 
	C980.695312,192.065247 973.253357,173.088394 965.898560,154.078094 
	C965.074036,151.946854 964.365601,149.770691 963.326111,146.831650 
	C967.782288,146.440567 971.644409,145.872467 975.514709,145.810074 
	C983.339600,145.683929 991.172791,145.990265 998.994812,145.799576 
	C1002.812744,145.706497 1004.661682,147.252792 1005.790283,150.789963 
	C1011.348816,168.210739 1017.071289,185.579269 1022.748779,202.962036 
	C1027.624878,217.890945 1032.504883,232.818665 1037.438721,247.728500 
	C1037.726562,248.598434 1038.513428,249.303253 1039.654419,250.911423 
	C1045.192261,234.423370 1050.466431,218.719986 1055.876953,202.642380 
z"/>
<path fill="#F8F8F7" opacity="1.000000" stroke="none" 
	d="
M879.163330,272.977570 
	C879.207886,278.465973 879.081055,283.468140 879.353577,288.448395 
	C879.536560,291.792572 878.241150,292.841980 875.037354,292.805695 
	C864.548340,292.687042 854.054810,292.635651 843.568054,292.828949 
	C839.894165,292.896667 838.696350,291.765747 838.706543,287.998993 
	C838.786438,258.412567 838.628357,228.825638 838.615784,199.238831 
	C838.600525,163.486877 838.697083,127.734818 838.625610,91.983040 
	C838.617188,87.791374 839.876343,85.993690 844.359131,86.098412 
	C854.341614,86.331619 864.336304,86.223137 874.322021,86.040138 
	C878.143250,85.970116 879.406067,87.180664 879.393921,91.214546 
	C879.212036,151.636719 879.207947,212.059418 879.163330,272.977570 
z"/>
<path fill="#F7F7F7" opacity="1.000000" stroke="none" 
	d="
M909.074036,228.000000 
	C909.073120,202.336594 909.186218,177.172165 908.967407,152.010651 
	C908.925842,147.236237 910.245605,145.576584 915.119507,145.750168 
	C924.436646,146.082001 933.777161,145.962463 943.102173,145.761368 
	C946.665039,145.684525 948.066956,146.568604 948.056213,150.469208 
	C947.929871,196.295425 947.975525,242.122116 947.958984,287.948669 
	C947.958496,289.264954 947.771362,290.581177 947.634888,292.374695 
	C934.810913,292.374695 922.128662,292.374695 909.072937,292.374695 
	C909.072937,270.775330 909.072937,249.637665 909.074036,228.000000 
z"/>
<path fill="#EAEAE9" opacity="1.000000" stroke="none" 
	d="
M1059.483398,379.882172 
	C1058.439331,378.797943 1057.338867,377.775055 1057.332642,376.745544 
	C1057.226807,359.290771 1057.256836,341.835175 1057.256836,323.119812 
	C1068.479980,323.751099 1079.409912,323.870514 1090.197388,325.171387 
	C1096.020508,325.873627 1099.935913,330.191010 1100.413574,336.487244 
	C1100.852417,342.274963 1099.465454,347.377594 1094.872681,349.666290 
	C1097.251099,354.013245 1100.957275,358.075378 1101.649170,362.598541 
	C1103.238770,372.990234 1095.541992,380.166016 1084.388306,380.080536 
	C1076.237671,380.018066 1068.086914,379.986023 1059.483398,379.882172 
M1070.425171,357.805481 
	C1070.425171,361.737640 1070.425171,365.669769 1070.425171,369.785858 
	C1075.008057,369.785858 1079.099365,370.349487 1082.909546,369.558777 
	C1084.953613,369.134552 1087.790527,366.510712 1087.978271,364.648468 
	C1088.226196,362.189087 1086.625977,357.584106 1085.119019,357.270477 
	C1080.396118,356.287506 1075.344360,356.885071 1070.425171,357.805481 
M1070.758911,345.457367 
	C1074.332153,345.680756 1077.910156,346.135498 1081.477539,346.064026 
	C1085.226929,345.988922 1087.213623,343.692963 1087.181763,339.949432 
	C1087.149902,336.210327 1085.106567,334.046417 1081.384644,333.851105 
	C1077.960205,333.671387 1074.518921,333.812927 1070.689087,333.812927 
	C1070.689087,337.587616 1070.689087,341.026154 1070.758911,345.457367 
z"/>
<path fill="#F3F3F3" opacity="1.000000" stroke="none" 
	d="
M907.160461,98.058945 
	C910.938110,87.998848 917.978027,82.858124 928.342529,82.665100 
	C939.017456,82.466293 946.639099,87.050980 950.945618,97.172691 
	C956.414612,110.026604 947.475037,125.723213 933.396973,127.490776 
	C920.869568,129.063644 909.717224,122.735756 906.853455,111.533394 
	C905.810730,107.454094 906.950073,102.816940 907.160461,98.058945 
z"/>
<path fill="#EAEAEA" opacity="1.000000" stroke="none" 
	d="
M1129.116211,365.844727 
	C1125.509155,353.486481 1129.654541,342.413635 1139.613281,337.223755 
	C1149.615479,332.011292 1163.251953,334.758942 1169.752197,343.722412 
	C1175.539673,351.703186 1175.512451,360.682526 1171.378296,369.114990 
	C1166.948486,378.150269 1158.509766,381.003754 1148.865845,380.483368 
	C1139.295288,379.966919 1132.634155,375.279480 1129.116211,365.844727 
M1158.839844,365.112457 
	C1159.477417,363.589294 1160.363770,362.120422 1160.709961,360.533661 
	C1162.347534,353.029694 1157.983887,345.953125 1151.566162,345.487732 
	C1144.010864,344.939850 1139.331177,352.660126 1141.630615,361.558136 
	C1142.613892,365.363098 1144.340820,368.345428 1148.313721,369.377014 
	C1152.431396,370.446198 1155.851685,369.239166 1158.839844,365.112457 
z"/>
<path fill="#979797" opacity="1.000000" stroke="none" 
	d="
M154.702271,263.049988 
	C144.663437,273.562500 134.289169,284.060211 123.872795,294.515991 
	C109.307526,309.136383 94.708778,323.723480 80.131645,338.332092 
	C79.008537,339.457642 77.943146,340.640747 75.943932,342.757355 
	C78.952011,342.917755 80.674805,343.089417 82.397644,343.089874 
	C136.031982,343.103546 189.671585,343.510437 243.297150,342.824249 
	C257.466309,342.642944 270.928467,337.087738 282.030853,327.747040 
	C293.231598,318.323669 301.207977,306.561401 304.325378,292.003418 
	C305.325104,287.334747 306.234161,282.529175 306.244812,277.784119 
	C306.370300,221.984680 306.286224,166.184814 306.332306,110.385132 
	C306.343658,96.643730 301.979980,84.318718 294.895508,72.435249 
	C300.738037,77.175407 302.907135,84.269165 305.153412,91.223122 
	C309.653656,105.154770 308.100403,119.596176 308.153534,133.856659 
	C308.312042,176.402222 308.175659,218.948776 308.265717,261.494720 
	C308.300964,278.150513 308.040161,294.731903 299.249542,309.669464 
	C288.722168,327.558258 273.728302,339.486847 252.872482,342.849609 
	C245.892288,343.975098 238.738052,344.461761 231.661545,344.478882 
	C180.703003,344.602203 129.743973,344.541595 78.785217,344.458862 
	C77.345703,344.456543 75.907646,343.556396 74.468903,343.074921 
	C75.157150,341.880432 75.625801,340.467285 76.565689,339.523376 
	C100.968796,315.016724 125.410431,290.548370 149.894485,266.122559 
	C151.156219,264.863892 152.853546,264.041809 154.702271,263.049988 
z"/>
<path fill="#E8E8E8" opacity="1.000000" stroke="none" 
	d="
M1231.005371,349.774414 
	C1231.613159,340.820007 1235.650269,336.457916 1244.089233,335.071320 
	C1252.865112,333.629333 1262.894409,335.944763 1266.496704,344.404114 
	C1268.349854,348.755829 1267.661133,350.259888 1263.164429,350.431274 
	C1259.348999,350.576660 1255.978760,350.629456 1253.397949,346.485046 
	C1252.446289,344.956818 1248.104126,345.438629 1245.298218,345.358002 
	C1245.072632,345.351501 1244.036499,348.801361 1244.644165,349.440796 
	C1246.139038,351.013824 1248.258667,352.190735 1250.336548,352.965668 
	C1253.440918,354.123444 1256.833740,354.522797 1259.912476,355.731781 
	C1269.366211,359.444183 1271.033691,369.634552 1263.423950,376.387054 
	C1256.063232,382.918610 1239.446899,381.904907 1233.337646,374.247162 
	C1231.497803,371.941040 1230.711670,368.794434 1228.967285,364.997925 
	C1235.412354,365.673798 1240.940186,362.631134 1244.952148,368.994171 
	C1245.899048,370.495880 1250.043335,370.297058 1252.702026,370.236023 
	C1253.656006,370.214172 1255.210693,368.347900 1255.305664,367.223206 
	C1255.391235,366.210907 1254.071777,364.474884 1252.994629,364.075439 
	C1248.657715,362.467010 1244.159302,361.299561 1239.749146,359.880432 
	C1234.995850,358.350891 1231.517212,355.610077 1231.005371,349.774414 
z"/>
<path fill="#979797" opacity="1.000000" stroke="none" 
	d="
M294.954285,71.703781 
	C291.761383,68.985519 288.609833,65.897835 285.425964,62.843868 
	C274.508667,52.371933 261.118530,46.479198 246.371399,46.339794 
	C190.090546,45.807785 133.789871,45.439003 77.520721,46.408764 
	C48.585224,46.907452 21.237745,68.134140 17.644295,99.589455 
	C16.837791,106.649193 16.125811,113.768242 16.108105,120.861824 
	C15.980087,172.151596 15.964270,223.442108 16.150475,274.731537 
	C16.171463,280.513153 17.672085,286.289368 18.486572,292.068085 
	C19.019449,292.130890 19.552328,292.193695 20.085207,292.256500 
	C29.065041,283.750916 38.044876,275.245300 47.371475,266.774628 
	C38.280975,276.538513 28.843704,286.267456 19.406433,295.996399 
	C18.769325,295.798309 18.132219,295.600220 17.495113,295.402100 
	C16.445057,289.544250 14.508937,283.690399 14.482511,277.827942 
	C14.228522,221.481827 13.786530,165.128067 14.471298,108.789536 
	C14.856975,77.058479 35.319492,51.767044 67.273758,46.225250 
	C80.381584,43.951977 94.032585,44.392483 107.439507,44.337830 
	C153.911102,44.148380 200.388138,43.938744 246.854050,44.494576 
	C261.806915,44.673443 275.190826,50.928997 286.294830,61.186176 
	C289.545715,64.189140 292.104706,67.941132 294.954285,71.703781 
z"/>
<path fill="#9D9D9D" opacity="1.000000" stroke="none" 
	d="
M1135.225342,168.136078 
	C1146.534302,154.315613 1161.245239,146.276184 1178.813721,144.487976 
	C1189.260620,143.424622 1200.121216,143.064865 1210.410034,144.747375 
	C1220.830566,146.451431 1230.439575,151.653381 1239.114502,158.176010 
	C1251.271606,167.316772 1259.925415,179.241013 1264.506714,193.385300 
	C1268.530151,205.807236 1270.363770,218.805771 1267.821289,232.220535 
	C1265.190430,246.101395 1260.494873,258.732574 1251.025391,269.377350 
	C1240.817261,280.852417 1228.904663,289.396332 1213.642090,293.172028 
	C1194.708130,297.855865 1176.226929,297.365784 1158.383545,289.370636 
	C1142.075928,282.063690 1130.060791,269.930237 1122.331055,253.851974 
	C1114.179810,236.896774 1113.045898,218.949600 1117.397827,200.927322 
	C1120.318726,188.831909 1125.079712,177.255722 1134.847900,168.637451 
	C1131.415283,175.127441 1126.928589,181.014191 1123.964844,187.587601 
	C1117.660522,201.570862 1115.727661,216.206161 1117.737671,231.681091 
	C1120.338135,251.701675 1129.867065,267.563477 1145.348267,279.522430 
	C1171.473999,299.703888 1212.882568,299.154541 1238.002686,279.290253 
	C1250.389404,269.495239 1259.264893,257.587433 1263.454712,242.214966 
	C1267.758423,226.424271 1267.508545,210.684052 1262.916260,195.125641 
	C1259.880371,184.839630 1254.811646,175.386520 1247.176636,167.701126 
	C1231.356812,151.776794 1212.246582,144.202560 1189.637451,145.090332 
	C1170.434448,145.844360 1153.560303,151.683456 1139.739624,165.419128 
	C1138.529785,166.621536 1136.743774,167.244156 1135.225342,168.136078 
z"/>
<path fill="#E6E6E6" opacity="1.000000" stroke="none" 
	d="
M1121.821533,374.773315 
	C1121.763916,376.551788 1121.702759,377.856415 1121.622314,379.570496 
	C1117.380127,379.570496 1113.320312,379.570496 1108.814697,379.570496 
	C1108.814697,360.183044 1108.814697,340.809418 1108.814697,321.054932 
	C1113.049683,321.054932 1117.250732,321.054932 1121.817749,321.054932 
	C1121.817749,339.074402 1121.817749,356.686920 1121.821533,374.773315 
z"/>
<path fill="#979797" opacity="1.000000" stroke="none" 
	d="
M264.971924,157.414825 
	C266.500549,160.810349 269.029297,164.529221 269.352997,168.431046 
	C271.352173,192.527222 265.591431,214.392090 249.319260,232.891052 
	C248.893509,233.375076 248.278091,233.692261 247.405090,234.068390 
	C249.514664,230.370102 251.929718,226.662842 254.433350,223.016403 
	C262.379578,211.443130 267.295380,198.754944 267.113708,184.633301 
	C266.998657,175.688660 265.713318,166.759079 264.971924,157.414825 
z"/>
<path fill="#7D7C7B" opacity="1.000000" stroke="none" 
	d="
M200.846344,121.181625 
	C196.654236,126.425865 192.162537,131.659363 187.560226,136.793701 
	C182.905258,141.986801 177.467422,146.623306 173.583496,152.328064 
	C167.886826,160.695419 170.439896,176.879044 177.656937,184.463562 
	C179.146378,186.028839 180.565369,187.661148 182.034546,189.603897 
	C174.670151,186.085266 171.096558,179.435455 169.085739,171.800522 
	C166.230637,160.960037 169.469513,152.210251 177.735382,144.573120 
	C185.724136,137.192032 192.941833,128.976410 200.846344,121.181625 
z"/>
<path fill="#7D7C7B" opacity="1.000000" stroke="none" 
	d="
M212.220245,103.188156 
	C216.009399,105.441864 213.999619,108.502731 212.221527,110.746811 
	C209.481155,114.205353 206.037888,117.106941 202.545761,120.208694 
	C204.208755,117.666611 206.033325,114.977654 208.277771,112.703003 
	C210.833817,110.112595 212.770309,107.462036 212.220245,103.188156 
z"/>
<path fill="#979797" opacity="1.000000" stroke="none" 
	d="
M109.115707,200.738586 
	C108.930626,195.886017 109.040428,190.784653 109.391708,185.360840 
	C109.558983,190.188843 109.484795,195.339310 109.115707,200.738586 
z"/>
<path fill="#979797" opacity="1.000000" stroke="none" 
	d="
M246.705566,234.066666 
	C243.317871,237.453156 239.586639,240.846802 235.501282,244.180634 
	C238.885452,240.771835 242.623749,237.422836 246.705566,234.066666 
z"/>
<path fill="#979797" opacity="1.000000" stroke="none" 
	d="
M220.724182,252.124405 
	C217.585358,253.728699 214.067322,255.286331 210.295258,256.624268 
	C213.475830,254.962296 216.910400,253.520020 220.724182,252.124405 
z"/>
<path fill="#979797" opacity="1.000000" stroke="none" 
	d="
M161.098343,104.353302 
	C163.996109,103.023438 167.265198,101.746399 170.763245,100.693787 
	C167.818024,102.080856 164.643860,103.243492 161.098343,104.353302 
z"/>
<path fill="#979797" opacity="1.000000" stroke="none" 
	d="
M110.105942,180.692719 
	C109.837318,178.355011 109.847961,175.721725 110.179375,172.925446 
	C110.461838,175.307343 110.423523,177.852234 110.105942,180.692719 
z"/>
<path fill="#979797" opacity="1.000000" stroke="none" 
	d="
M201.770203,257.694611 
	C199.511047,258.503510 197.013351,259.128143 194.268585,259.488586 
	C196.524902,258.653076 199.028259,258.081696 201.770203,257.694611 
z"/>
<path fill="#979797" opacity="1.000000" stroke="none" 
	d="
M190.797989,259.546875 
	C188.887680,259.885193 186.516785,260.104431 183.928543,260.065247 
	C185.919922,259.680481 188.128677,259.554138 190.797989,259.546875 
z"/>
<path fill="#979797" opacity="1.000000" stroke="none" 
	d="
M151.343933,108.993301 
	C153.209076,107.731277 155.434067,106.481361 158.022156,105.367172 
	C156.158096,106.670403 153.930939,107.837906 151.343933,108.993301 
z"/>
<path fill="#979797" opacity="1.000000" stroke="none" 
	d="
M162.868179,259.368622 
	C160.960236,260.610809 158.696030,261.741058 156.070770,262.779663 
	C157.977127,261.544250 160.244522,260.400482 162.868179,259.368622 
z"/>
<path fill="#979797" opacity="1.000000" stroke="none" 
	d="
M82.071136,233.530853 
	C83.140503,231.933746 84.531540,230.319366 86.261398,228.731689 
	C85.197739,230.343430 83.795273,231.928497 82.071136,233.530853 
z"/>
<path fill="#979797" opacity="1.000000" stroke="none" 
	d="
M228.801758,248.221405 
	C227.211868,249.421310 225.271317,250.600037 222.980835,251.661957 
	C224.570953,250.430176 226.511017,249.315201 228.801758,248.221405 
z"/>
<path fill="#979797" opacity="1.000000" stroke="none" 
	d="
M100.105011,215.569672 
	C100.894318,214.039429 102.008568,212.478760 103.451988,210.888519 
	C102.664093,212.419037 101.547020,213.979156 100.105011,215.569672 
z"/>
<path fill="#979797" opacity="1.000000" stroke="none" 
	d="
M113.954544,154.768127 
	C114.063072,153.300171 114.470543,151.622574 115.174088,149.845917 
	C115.064606,151.350723 114.659050,152.954590 113.954544,154.768127 
z"/>
<path fill="#979797" opacity="1.000000" stroke="none" 
	d="
M67.228210,247.817673 
	C67.972557,246.525818 69.050476,245.206543 70.458023,243.871063 
	C69.712357,245.166656 68.637070,246.478455 67.228210,247.817673 
z"/>
<path fill="#7D7C7B" opacity="1.000000" stroke="none" 
	d="
M186.868866,193.677841 
	C188.534698,193.900589 190.307983,194.452103 192.162888,195.345078 
	C190.488449,195.126556 188.732391,194.566574 186.868866,193.677841 
z"/>
<path fill="#979797" opacity="1.000000" stroke="none" 
	d="
M50.113319,264.657043 
	C50.872276,263.336182 51.955296,262.018707 53.382408,260.756073 
	C52.630127,262.094086 51.533760,263.377289 50.113319,264.657043 
z"/>
<path fill="#979797" opacity="1.000000" stroke="none" 
	d="
M112.151550,161.705597 
	C112.236496,160.330872 112.513481,158.664124 113.064178,156.861176 
	C113.006454,158.287857 112.675034,159.850723 112.151550,161.705597 
z"/>
<path fill="#979797" opacity="1.000000" stroke="none" 
	d="
M260.190674,156.394730 
	C261.166199,156.138718 262.591919,155.968643 264.153748,156.058212 
	C263.073547,156.372131 261.857178,156.426392 260.190674,156.394730 
z"/>
<path fill="#979797" opacity="1.000000" stroke="none" 
	d="
M122.120865,136.842377 
	C122.329948,135.965836 122.831131,134.942795 123.637596,133.936523 
	C123.432899,134.867493 122.922935,135.781677 122.120865,136.842377 
z"/>
<path fill="#979797" opacity="1.000000" stroke="none" 
	d="
M56.242966,258.874451 
	C56.653316,257.868103 57.394138,256.858154 58.467152,255.853760 
	C58.057377,256.863190 57.315411,257.867035 56.242966,258.874451 
z"/>
<path fill="#979797" opacity="1.000000" stroke="none" 
	d="
M234.799332,244.111908 
	C234.163300,245.011246 233.211975,245.869156 231.927902,246.589661 
	C232.558121,245.658340 233.521088,244.864426 234.799332,244.111908 
z"/>
<path fill="#979797" opacity="1.000000" stroke="none" 
	d="
M89.444672,226.100998 
	C89.896965,225.103775 90.673904,224.074768 91.797897,223.088959 
	C91.353073,224.111160 90.561203,225.090195 89.444672,226.100998 
z"/>
<path fill="#979797" opacity="1.000000" stroke="none" 
	d="
M218.304245,193.969666 
	C218.799942,193.005234 219.623428,192.041260 220.784210,191.092758 
	C220.291672,192.062195 219.461853,193.016159 218.304245,193.969666 
z"/>
<path fill="#979797" opacity="1.000000" stroke="none" 
	d="
M252.298584,161.961121 
	C252.857315,161.037842 253.739731,160.108322 254.962280,159.251709 
	C254.409042,160.201385 253.515656,161.078140 252.298584,161.961121 
z"/>
<path fill="#979797" opacity="1.000000" stroke="none" 
	d="
M233.470062,180.126358 
	C233.916229,179.133392 234.685883,178.107788 235.802307,177.109253 
	C235.363907,178.122116 234.578735,179.107910 233.470062,180.126358 
z"/>
<path fill="#979797" opacity="1.000000" stroke="none" 
	d="
M167.804932,258.643738 
	C167.146225,259.092255 166.281219,259.353302 165.216644,259.401611 
	C165.877609,258.944733 166.738129,258.700531 167.804932,258.643738 
z"/>
<path fill="#979797" opacity="1.000000" stroke="none" 
	d="
M172.811142,259.025513 
	C172.102600,259.275177 171.221909,259.301697 170.162720,259.087585 
	C170.869156,258.832092 171.754074,258.817230 172.811142,259.025513 
z"/>
<path fill="#979797" opacity="1.000000" stroke="none" 
	d="
M179.802765,259.023621 
	C179.100189,259.403595 178.216537,259.567139 177.176697,259.475800 
	C177.887573,259.083038 178.754623,258.945129 179.802765,259.023621 
z"/>
<path fill="#979797" opacity="1.000000" stroke="none" 
	d="
M71.173439,243.760742 
	C71.550468,243.073837 72.250313,242.369614 73.278931,241.710388 
	C72.903893,242.418060 72.200073,243.080734 71.173439,243.760742 
z"/>
<path fill="#979797" opacity="1.000000" stroke="none" 
	d="
M124.260605,133.863129 
	C124.376396,132.970993 124.803391,131.997742 125.566055,130.977036 
	C125.458427,131.880402 125.015114,132.831223 124.260605,133.863129 
z"/>
<path fill="#979797" opacity="1.000000" stroke="none" 
	d="
M138.334717,117.996574 
	C138.721710,117.270561 139.423233,116.516121 140.460953,115.807648 
	C140.081177,116.558464 139.365219,117.263306 138.334717,117.996574 
z"/>
<path fill="#979797" opacity="1.000000" stroke="none" 
	d="
M256.276489,158.973099 
	C256.684937,158.216583 257.413452,157.496292 258.476318,156.819031 
	C258.072571,157.577835 257.334564,158.293579 256.276489,158.973099 
z"/>
<path fill="#979797" opacity="1.000000" stroke="none" 
	d="
M148.149628,110.719612 
	C148.653870,110.067688 149.482254,109.430801 150.646484,108.888107 
	C150.146149,109.566422 149.309952,110.150528 148.149628,110.719612 
z"/>
<path fill="#979797" opacity="1.000000" stroke="none" 
	d="
M228.235764,184.893494 
	C228.587524,184.153168 229.257965,183.430923 230.248840,182.732727 
	C229.897659,183.475037 229.226044,184.193298 228.235764,184.893494 
z"/>
<path fill="#979797" opacity="1.000000" stroke="none" 
	d="
M175.092941,100.693062 
	C175.425674,100.216362 176.058548,99.863449 176.841187,99.707962 
	C176.458328,100.209206 175.925690,100.513023 175.092941,100.693062 
z"/>
<path fill="#979797" opacity="1.000000" stroke="none" 
	d="
M188.164124,99.134308 
	C188.563766,98.836617 189.125778,98.702164 189.840561,98.749115 
	C189.437729,99.052864 188.882111,99.175209 188.164124,99.134308 
z"/>
<path fill="#979797" opacity="1.000000" stroke="none" 
	d="
M181.078796,99.617569 
	C181.413513,99.190834 182.044632,98.859787 182.833450,98.717819 
	C182.452499,99.175690 181.913834,99.444466 181.078796,99.617569 
z"/>
<path fill="#979797" opacity="1.000000" stroke="none" 
	d="
M207.987747,256.513672 
	C207.544006,257.015930 206.836929,257.359741 205.859955,257.541626 
	C206.301514,257.038177 207.012955,256.696686 207.987747,256.513672 
z"/>
<path fill="#979797" opacity="1.000000" stroke="none" 
	d="
M59.174446,255.782669 
	C59.305271,255.150635 59.749325,254.505188 60.512657,253.871552 
	C60.383850,254.511993 59.935760,255.140625 59.174446,255.782669 
z"/>
<path fill="#7D7C7B" opacity="1.000000" stroke="none" 
	d="
M207.149796,198.259491 
	C207.563110,197.815979 208.125824,197.583878 208.841858,197.551727 
	C208.429855,197.991409 207.864517,198.231155 207.149796,198.259491 
z"/>
<path fill="#7D7C7B" opacity="1.000000" stroke="none" 
	d="
M197.191956,197.027710 
	C197.727478,196.770493 198.453674,196.813095 199.270447,197.094528 
	C198.701538,197.331406 198.042099,197.329453 197.191956,197.027710 
z"/>
<path fill="#979797" opacity="1.000000" stroke="none" 
	d="
M142.258667,114.926865 
	C142.466263,114.314705 142.991058,113.709213 143.846680,113.135086 
	C143.643616,113.755486 143.109756,114.344505 142.258667,114.926865 
z"/>
<path fill="#979797" opacity="1.000000" stroke="none" 
	d="
M128.502747,128.133682 
	C128.557861,127.466690 128.916061,126.730850 129.616577,125.981674 
	C129.574554,126.667175 129.190186,127.366005 128.502747,128.133682 
z"/>
<path fill="#979797" opacity="1.000000" stroke="none" 
	d="
M118.645233,143.202179 
	C118.601677,142.536636 118.855339,141.766266 119.430679,140.924988 
	C119.482399,141.601852 119.212425,142.349594 118.645233,143.202179 
z"/>
<path fill="#060606" opacity="1.000000" stroke="none" 
	d="
M1210.635498,354.713135 
	C1210.787720,355.597870 1210.915527,356.091553 1210.908813,356.583435 
	C1210.811890,363.606354 1207.985962,368.191620 1202.955933,369.449493 
	C1198.538086,370.554291 1195.196655,369.121552 1192.855835,365.188995 
	C1189.769653,360.004578 1190.218262,351.977783 1193.885986,348.109192 
	C1199.134644,342.573059 1207.771118,345.792755 1210.635498,354.713135 
z"/>
<path fill="#030303" opacity="1.000000" stroke="none" 
	d="
M784.006104,219.124680 
	C784.116699,233.044785 780.549316,245.078842 770.331482,254.461304 
	C762.205627,261.922913 752.472595,263.950470 741.768127,262.871216 
	C733.538208,262.041443 726.505737,259.080383 720.589172,253.083878 
	C709.429260,241.773315 707.542297,227.948105 708.883423,213.047165 
	C710.190613,198.522537 716.390747,186.667679 729.607727,180.204987 
	C746.491455,171.949417 770.743835,176.502411 778.971863,197.614105 
	C781.565735,204.269226 782.367554,211.622772 784.006104,219.124680 
z"/>
<path fill="#030303" opacity="1.000000" stroke="none" 
	d="
M541.478027,229.647491 
	C542.165771,220.556412 540.541809,211.931229 543.354065,203.241653 
	C548.622070,186.963898 561.301208,175.909927 580.194885,176.490204 
	C597.346252,177.016968 609.989929,188.876068 614.294617,203.440186 
	C619.227722,220.130432 617.952454,236.075256 607.361267,250.195053 
	C599.339539,260.889465 587.592896,264.316742 574.663025,263.008118 
	C554.912903,261.009186 545.365601,248.329819 541.478027,229.647491 
z"/>
<path fill="#0D0D0D" opacity="1.000000" stroke="none" 
	d="
M1070.422607,357.337891 
	C1075.344360,356.885071 1080.396118,356.287506 1085.119019,357.270477 
	C1086.625977,357.584106 1088.226196,362.189087 1087.978271,364.648468 
	C1087.790527,366.510712 1084.953613,369.134552 1082.909546,369.558777 
	C1079.099365,370.349487 1075.008057,369.785858 1070.425171,369.785858 
	C1070.425171,365.669769 1070.425171,361.737640 1070.422607,357.337891 
z"/>
<path fill="#010101" opacity="1.000000" stroke="none" 
	d="
M1070.723999,344.961060 
	C1070.689087,341.026154 1070.689087,337.587616 1070.689087,333.812927 
	C1074.518921,333.812927 1077.960205,333.671387 1081.384644,333.851105 
	C1085.106567,334.046417 1087.149902,336.210327 1087.181763,339.949432 
	C1087.213623,343.692963 1085.226929,345.988922 1081.477539,346.064026 
	C1077.910156,346.135498 1074.332153,345.680756 1070.723999,344.961060 
z"/>
<path fill="#080808" opacity="1.000000" stroke="none" 
	d="
M1158.598633,365.411316 
	C1155.851685,369.239166 1152.431396,370.446198 1148.313721,369.377014 
	C1144.340820,368.345428 1142.613892,365.363098 1141.630615,361.558136 
	C1139.331177,352.660126 1144.010864,344.939850 1151.566162,345.487732 
	C1157.983887,345.953125 1162.347534,353.029694 1160.709961,360.533661 
	C1160.363770,362.120422 1159.477417,363.589294 1158.598633,365.411316 
z"/>
<path fill="#FBFBFB" opacity="1.000000" stroke="none" 
	d="
M1135.181641,168.137970 
	C1136.743774,167.244156 1138.529785,166.621536 1139.739624,165.419128 
	C1153.560303,151.683456 1170.434448,145.844360 1189.637451,145.090332 
	C1212.246582,144.202560 1231.356812,151.776794 1247.176636,167.701126 
	C1254.811646,175.386520 1259.880371,184.839630 1262.916260,195.125641 
	C1267.508545,210.684052 1267.758423,226.424271 1263.454712,242.214966 
	C1259.264893,257.587433 1250.389404,269.495239 1238.002686,279.290253 
	C1212.882568,299.154541 1171.473999,299.703888 1145.348267,279.522430 
	C1129.867065,267.563477 1120.338135,251.701675 1117.737671,231.681091 
	C1115.727661,216.206161 1117.660522,201.570862 1123.964844,187.587601 
	C1126.928589,181.014191 1131.415283,175.127441 1135.177246,168.578293 
	C1135.142456,168.227036 1135.138062,168.139862 1135.181641,168.137970 
M1158.203369,240.114655 
	C1164.076050,252.216461 1172.367798,260.612549 1186.712891,262.693665 
	C1203.725830,265.161865 1216.544312,257.175232 1222.892090,246.512848 
	C1233.086182,229.390106 1232.613770,211.829514 1223.793945,194.464661 
	C1212.786133,172.792358 1180.396118,171.537338 1167.033325,186.468491 
	C1152.798096,202.374695 1152.136597,220.228149 1158.203369,240.114655 
z"/>
<path fill="#030303" opacity="1.000000" stroke="none" 
	d="
M1158.069458,239.747650 
	C1152.136597,220.228149 1152.798096,202.374695 1167.033325,186.468491 
	C1180.396118,171.537338 1212.786133,172.792358 1223.793945,194.464661 
	C1232.613770,211.829514 1233.086182,229.390106 1222.892090,246.512848 
	C1216.544312,257.175232 1203.725830,265.161865 1186.712891,262.693665 
	C1172.367798,260.612549 1164.076050,252.216461 1158.069458,239.747650 
z"/>
</svg>